<svg width="20" height="22" viewBox="0 0 20 22" fill="none" xmlns="http://www.w3.org/2000/svg">
<path fill-rule="evenodd" clip-rule="evenodd" d="M4 4.66663H6V3.62354H14V4.66663H16V3.62354H18V6.75287H2V3.62354H4V4.66663ZM2 8.83905V19.2701H18V8.83905H2ZM6 1.53729H14V0.494141H16V1.53729H18C19.1046 1.53729 20 2.47132 20 3.6235V19.2701C20 20.4223 19.1046 21.3563 18 21.3563H2C0.89543 21.3563 0 20.4223 0 19.2701V3.6235C0 2.47132 0.89543 1.53729 2 1.53729H4V0.494141H6V1.53729Z" fill="black" fill-opacity="0.6"/>
</svg>
