<svg width="18" height="30" viewBox="0 0 18 30" fill="none" xmlns="http://www.w3.org/2000/svg">
<path d="M15.3 0H2.7C1.20938 0 0 1.25977 0 2.8125V27.1875C0 28.7402 1.20938 30 2.7 30H15.3C16.7906 30 18 28.7402 18 27.1875V2.8125C18 1.25977 16.7906 0 15.3 0ZM9 28.125C8.00437 28.125 7.2 27.2871 7.2 26.25C7.2 25.2129 8.00437 24.375 9 24.375C9.99562 24.375 10.8 25.2129 10.8 26.25C10.8 27.2871 9.99562 28.125 9 28.125ZM15.3 21.7969C15.3 22.1836 14.9962 22.5 14.625 22.5H3.375C3.00375 22.5 2.7 22.1836 2.7 21.7969V3.51562C2.7 3.12891 3.00375 2.8125 3.375 2.8125H14.625C14.9962 2.8125 15.3 3.12891 15.3 3.51562V21.7969Z" fill="#DD4A2C"/>
</svg>
