<svg width="48" height="48" viewBox="0 0 48 48" fill="none" xmlns="http://www.w3.org/2000/svg">
<path d="M47.4713 19.5437L44.1209 16.6661C44.1209 16.6661 44.1209 16.6661 43.9614 16.5062L25.1354 0.3597C24.4972 -0.1199 23.6995 -0.1199 23.0613 0.3597L4.07574 16.5062C4.07574 16.5062 4.07574 16.5062 3.9162 16.6661L0.565801 19.5437C-0.072369 20.1832 -0.231911 21.1424 0.406259 21.7818C1.04443 22.4213 2.00168 22.5812 2.63986 21.9417L4.07574 20.8226L9.65973 46.7211C9.81927 47.5204 10.4574 48 11.2552 48H17.6369V30.4147C17.6369 29.6153 18.4346 28.816 19.2323 28.816H28.8048C29.6026 28.816 30.4003 29.6153 30.4003 30.4147V48H36.782C37.5797 48 38.2179 47.5204 38.3774 46.7211L43.9614 20.8226L45.3973 22.1016C45.7164 22.4213 46.0354 22.4213 46.5141 22.4213C46.9927 22.4213 47.4713 22.2614 47.7904 21.7818C48.1095 21.1424 48.1095 20.1832 47.4713 19.5437Z" fill="black" fill-opacity="0.8"/>
<path d="M20.8277 47.9997H27.2094V32.0131H20.8277V47.9997Z" fill="black" fill-opacity="0.8"/>
</svg>
