<svg width="44" height="44" viewBox="0 0 44 44" fill="none" xmlns="http://www.w3.org/2000/svg">
<path d="M43.4105 4.59976C43.2248 4.41382 43.0042 4.26632 42.7615 4.16568C42.5187 4.06504 42.2585 4.01324 41.9957 4.01324C41.7329 4.01324 41.4726 4.06504 41.2299 4.16568C40.9871 4.26632 40.7665 4.41382 40.5808 4.59976L21.9977 23.1829L15.4133 16.5986C15.0381 16.2233 14.5291 16.0125 13.9985 16.0125C13.4678 16.0125 12.9589 16.2233 12.5836 16.5986C12.2084 16.9738 11.9976 17.4827 11.9976 18.0134C11.9976 18.5441 12.2084 19.053 12.5836 19.4283L20.5828 27.4275C20.7685 27.6134 20.9891 27.7609 21.2319 27.8616C21.4746 27.9622 21.7349 28.014 21.9977 28.014C22.2605 28.014 22.5207 27.9622 22.7635 27.8616C23.0062 27.7609 23.2268 27.6134 23.4125 27.4275L43.4105 7.42948C43.5965 7.24375 43.744 7.02319 43.8446 6.78042C43.9452 6.53765 43.997 6.27742 43.997 6.01462C43.997 5.75181 43.9452 5.49159 43.8446 5.24881C43.744 5.00604 43.5965 4.78549 43.4105 4.59976Z" fill="#60B158"/>
<path d="M43.5557 17.6035C43.5032 17.3462 43.4005 17.1017 43.2534 16.884C43.1064 16.6663 42.918 16.4797 42.6988 16.3349C42.4797 16.1901 42.2342 16.0898 41.9763 16.0398C41.7185 15.9899 41.4533 15.9912 41.1959 16.0437C40.9385 16.0962 40.694 16.1989 40.4764 16.3459C40.2587 16.493 40.0721 16.6814 39.9273 16.9005C39.7824 17.1197 39.6822 17.3652 39.6322 17.623C39.5822 17.8809 39.5835 18.1461 39.6361 18.4035C40.46 22.4271 39.8831 26.6115 38.001 30.262C36.1188 33.9126 33.0448 36.8095 29.2892 38.472C25.5335 40.1345 21.3223 40.4626 17.3545 39.4016C13.3868 38.3407 9.90125 35.9546 7.47659 32.6395C5.05194 29.3245 3.83403 25.2798 4.02506 21.1771C4.21609 17.0744 5.80457 13.1605 8.52678 10.0851C11.249 7.00965 14.9412 4.95779 18.9903 4.27013C23.0395 3.58247 27.2021 4.30038 30.7869 6.30467C31.251 6.56456 31.7993 6.62944 32.3113 6.48506C32.5648 6.41356 32.8017 6.29284 33.0085 6.12979C33.2153 5.96673 33.388 5.76454 33.5167 5.53475C33.6454 5.30496 33.7275 5.05207 33.7585 4.79053C33.7894 4.52899 33.7686 4.26391 33.6971 4.01043C33.6256 3.75695 33.5048 3.52004 33.3418 3.31321C33.1787 3.10639 32.9765 2.9337 32.7468 2.80502C28.5331 0.44515 23.6599 -0.462467 18.8792 0.222225C14.0984 0.906916 9.67588 3.14586 6.29395 6.59357C2.91202 10.0413 0.758676 14.5061 0.166194 19.2992C-0.426288 24.0922 0.575023 28.947 3.01562 33.1144C5.45621 37.2819 9.20044 40.5303 13.6705 42.3586C18.1406 44.1868 23.0881 44.4931 27.7496 43.2304C32.4111 41.9676 36.5275 39.2058 39.4636 35.3713C42.3997 31.5368 43.9923 26.8426 43.9956 22.0131C43.9949 20.5323 43.8475 19.0553 43.5557 17.6035Z" fill="#60B158"/>
</svg>
