<?xml version="1.0" encoding="utf-8"?>
<!-- Generator: Adobe Illustrator 23.1.0, SVG Export Plug-In . SVG Version: 6.00 Build 0)  -->
<svg version="1.1" id="Capa_1" xmlns="http://www.w3.org/2000/svg" xmlns:xlink="http://www.w3.org/1999/xlink" x="0px" y="0px"
	 viewBox="0 0 114 114" style="enable-background:new 0 0 114 114;" xml:space="preserve">
<style type="text/css">
	.st0{fill:#787878;}
</style>
<g>
	<g>
		<path class="st0" d="M87.4,26.6C79.3,18.5,68.5,14,57,14s-22.3,4.5-30.4,12.6S14,45.5,14,57s4.5,22.3,12.6,30.4S45.5,100,57,100
			s22.3-4.5,30.4-12.6S100,68.5,100,57S95.5,34.7,87.4,26.6z M83.9,83.9C76.7,91.2,67.2,95.1,57,95.1s-19.7-4-26.9-11.2
			c-14.9-14.9-14.9-39,0-53.9c7.2-7.2,16.8-11.2,26.9-11.2s19.7,4,26.9,11.2C98.8,44.9,98.8,69.1,83.9,83.9z"/>
		<path class="st0" d="M75.9,38.1c-1-1-2.5-1-3.5,0L57,53.5L41.5,38.1c-1-1-2.5-1-3.5,0s-1,2.5,0,3.5L53.5,57L38.1,72.5
			c-1,1-1,2.5,0,3.5c0.5,0.5,1.1,0.7,1.7,0.7s1.2-0.2,1.7-0.7L57,60.5l15.5,15.5c0.5,0.5,1.1,0.7,1.7,0.7c0.6,0,1.2-0.2,1.7-0.7
			c1-1,1-2.5,0-3.5L60.5,57l15.5-15.5C76.9,40.5,76.9,39,75.9,38.1z"/>
	</g>
</g>
</svg>
