<svg width="48" height="48" viewBox="0 0 48 48" fill="none" xmlns="http://www.w3.org/2000/svg">
<path d="M45.0708 31.8655H14.3891C12.4401 31.8655 10.6094 31.0863 9.22243 29.6745L5.06233 25.4136C4.67423 25.0161 4.20649 24.7563 3.71557 24.6265C3.22464 24.4887 2.70898 24.4887 2.21805 24.6265C1.72713 24.7563 1.2594 25.0161 0.871296 25.4136C0.293009 26.0059 0 26.785 0 27.5642V37.1138C0 38.8543 1.37768 40.2661 3.07775 40.2661C3.07775 40.2661 9.60435 40.3556 10.0481 40.3714V45.809C10.0481 47.0102 11.0068 48 12.1873 48C13.3679 48 14.335 47.0102 14.335 45.809V40.3793H34.9693V45.809C34.9693 47.0102 35.928 48 37.1085 48C38.2891 48 39.2477 47.0102 39.2477 45.809V40.3793H45.0723C46.7044 40.3793 48.0001 38.783 48.0001 36.0987C47.9993 33.8031 46.7036 31.8655 45.0708 31.8655Z" fill="black"/>
<path d="M42.9425 20.6678C41.8292 20.4191 40.6796 21.1722 40.4399 22.2934L40.0936 23.8676C39.9289 24.6127 39.2934 25.1329 38.5473 25.1329H35.0552C34.5898 25.1329 34.0409 24.9952 33.4224 24.7244C28.3802 22.5128 23.3078 21.3907 18.3452 21.3907H16.4928C15.419 21.3907 14.4016 21.8199 13.6246 22.6038C12.8631 23.3949 12.444 24.4369 12.444 25.5376C12.444 27.8244 14.2601 29.6852 16.4928 29.6852H40.5219C40.7267 29.6852 40.9208 29.6718 41.1009 29.6393C41.8586 29.5285 42.5691 29.1967 43.1868 28.6487L43.2641 28.5695L43.9421 25.8306L44.5188 23.2436C44.5529 23.1019 44.5706 22.9411 44.5706 22.7646C44.5722 21.7724 43.8888 20.8911 42.9425 20.6678Z" fill="black"/>
<path d="M8.93877 15.9658C6.77792 15.9658 5.01987 17.7657 5.01987 19.9788C5.01987 22.192 6.77792 23.9927 8.93877 23.9927C11.0996 23.9927 12.8569 22.192 12.8569 19.9788C12.8569 17.7657 11.0996 15.9658 8.93877 15.9658Z" fill="black"/>
<path d="M37.5639 3.72111C37.5871 1.43427 35.8244 -0.0219219 33.9512 0.000249659C28.8123 0.0620132 27.1215 0.0540948 21.9819 0.00183332C19.9532 -0.0187545 18.3366 1.54275 18.356 3.70844C18.3861 7.12839 18.3637 10.5491 18.3683 13.9691C18.3714 16.0667 19.8187 17.5545 21.8636 17.5593C24.486 17.5648 27.1084 17.5609 29.7308 17.5609C32.3184 17.5609 31.4556 17.5648 34.0424 17.5593C36.1097 17.5545 37.5531 16.0603 37.5546 13.9279C37.5577 10.5254 37.5291 7.12285 37.5639 3.72111ZM33.9597 10.4129H29.5808V14.9193H26.3453V10.4692H21.9602V7.1474H26.2927V2.64341H29.5622V7.12602H33.9597V10.4129Z" fill="black"/>
</svg>
