<svg width="60" height="60" viewBox="0 0 60 60" fill="none" xmlns="http://www.w3.org/2000/svg">
<path d="M30.2274 7.5462C29.9702 6.92232 29.7528 6.34481 29.5836 5.87307C30.0731 5.85118 30.6771 5.83777 31.3452 5.85219C32.861 5.88491 34.6252 6.06004 36.1214 6.55548L35.2902 13.1715C34.3398 13.2062 33.4076 12.8287 32.7467 12.116C31.7848 10.9813 30.8944 9.16381 30.2274 7.5462Z" fill="white" stroke="#EE7446" stroke-width="2"/>
<path d="M58.7036 1.2043C58.6311 1.44498 58.5474 1.71921 58.4529 2.02253C58.0736 3.24042 57.5222 4.9243 56.834 6.78743C55.4463 10.5444 53.5426 14.9178 51.422 17.7075C48.5383 21.5011 42.6126 21.2936 39.1644 17.7488C35.7221 14.2102 35.5542 8.15047 39.2224 5.05336C42.4283 2.34661 47.4975 1.36668 51.9478 1.11146C54.1437 0.985529 56.1309 1.03866 57.5695 1.12357C58.0006 1.14901 58.3817 1.17727 58.7036 1.2043Z" fill="white" stroke="#EE7446" stroke-width="2"/>
<path d="M30.9062 30.2217C30.8699 30.2217 30.833 30.2196 30.7956 30.2162C30.2276 30.1553 29.8161 29.6459 29.8763 29.0776C31.2184 16.4643 44.5444 10.6333 45.1106 10.3913C45.636 10.1665 46.2439 10.4103 46.4686 10.9355C46.6932 11.4607 46.4496 12.0688 45.9244 12.2935C45.7965 12.3481 33.1459 17.9028 31.9341 29.2968C31.8779 29.8224 31.4347 30.221 30.9062 30.2217Z" fill="#EE7446"/>
<path d="M42.8013 36.2041C43.7265 36.007 44.6912 36.2386 45.4263 36.8343C46.1483 37.4196 46.5725 38.2947 46.586 39.2224C46.5836 39.248 46.5814 39.2806 46.5812 39.3182L46.5753 40.1936L47.4423 40.3152C48.6777 40.4885 49.6101 41.509 49.685 42.74C48.8001 45.2081 46.7019 47.0499 44.1307 47.6026L32.0865 50.1915C31.1483 50.3931 30.1805 50.4152 29.2341 50.2566L21.4278 48.948C18.4775 48.4534 16.0922 46.2734 15.3347 43.3795L15.3347 43.3795L13.4148 36.045C13.4465 34.6599 14.1694 33.379 15.3454 32.6368C16.555 31.8734 18.073 31.7879 19.3606 32.4109L20.1185 32.7775L20.6089 32.0932C22.2121 29.8564 25.2835 29.2615 27.606 30.738L28.6423 31.3968L29.0775 30.2485C29.4368 29.3006 30.4225 28.745 31.4194 28.9285C32.4045 29.1098 33.1223 29.9613 33.1376 30.9594C33.1364 30.9683 33.1348 30.9803 33.1331 30.9939C33.1297 31.0211 33.1255 31.0601 33.1232 31.1059L33.0585 32.3954L34.3231 32.1356C37.3003 31.5241 40.3194 32.9748 41.7025 35.6811L42.0514 36.3638L42.8013 36.2041ZM46.5949 39.1505L46.5944 39.1544C46.5949 39.1507 46.5953 39.148 46.5949 39.1505Z" fill="white" stroke="#EE7446" stroke-width="2"/>
<path d="M9.99999 37.6375V37.64V56.3569C9.99086 57.6703 8.68217 58.9912 6.71982 59H4.2788C2.31204 58.9981 1.0021 57.6722 1 56.3592V37.6408C1.0021 36.3279 2.31183 35.0021 4.27832 35H6.72169C8.12424 35.0017 9.28828 35.7149 9.76396 36.6635L9.76491 36.6654C9.92323 36.9794 10.0008 37.3096 9.99999 37.6375Z" fill="white" stroke="#EE7446" stroke-width="2"/>
<path d="M58.1145 45.2158L58.1178 45.2138C58.5597 44.947 58.8679 44.5054 58.9657 43.9988L58.9658 43.9984C59.0639 43.4914 58.9426 42.9667 58.632 42.5542L58.5359 42.4265C58.0502 41.8807 57.2826 41.6685 56.5792 41.8987C56.5786 41.8989 56.5779 41.8991 56.5773 41.8993L37.4396 48.2785C37.4385 48.2788 37.4374 48.2792 37.4363 48.2796C36.9102 48.4585 36.3582 48.5495 35.8028 48.5492M58.1145 45.2158L35.8033 47.5492M58.1145 45.2158L38.7284 57.0192C38.7284 57.0192 38.7284 57.0192 38.7283 57.0193C37.7505 57.6144 36.6279 57.929 35.4832 57.9286H35.4829M58.1145 45.2158L35.4829 57.9286M35.8028 48.5492L35.8033 47.5492M35.8028 48.5492H35.8033V47.5492M35.8028 48.5492H33.3722H30.9534L32.6661 46.8411C33.5574 45.9522 33.7294 44.5705 33.083 43.4902M35.8033 47.5492H34.663C34.4939 47.8 34.2989 48.0373 34.0784 48.2572L33.3722 47.5492V46.5492H34.0891C34.6364 45.4344 34.6064 44.0886 33.9412 42.9768M33.083 43.4902L33.0836 43.4911L33.9412 42.9768M33.083 43.4902L33.9412 42.9768M33.083 43.4902L32.9905 43.3359L32.9897 43.3345C32.2375 42.0756 30.8783 41.3056 29.4117 41.3078L29.4102 41.3078L23.9999 41.3078H23.9985C21.6295 41.3046 19.3314 40.4982 17.4796 39.0205C15.9816 37.8251 14.1226 37.1727 12.2062 37.1699M33.9412 42.9768L33.8481 42.8216M33.8481 42.8216C32.9152 41.2601 31.2292 40.3051 29.4102 40.3078L33.8481 42.8216ZM33.8481 42.8216L10.0418 36.1699C10.1579 36.4936 10.237 36.8291 10.2778 37.1699M12.2062 37.1699H12.2069V36.1699L12.2055 37.1699C12.2057 37.1699 12.206 37.1699 12.2062 37.1699ZM12.2062 37.1699H10.2778M10.2778 37.1699C10.2997 37.3529 10.3107 37.5375 10.3103 37.7226M10.2778 37.1699L10.3103 37.7226M10.3103 37.7226C10.3103 37.7229 10.3103 37.7233 10.3103 37.7236L9.31034 37.7217H10.3103V37.7226ZM35.4829 57.9286H10.0296M35.4829 57.9286H10.0296M10.0296 57.9286C10.2145 57.4251 10.3113 56.8882 10.3103 56.3414V56.3423L10.0296 57.9286ZM9.31432 36.1785L9.31034 36.1802V36.9282L9.42257 37.1699H9.53121L9.73153 37.0769L9.31432 36.1785ZM8.27593 58.9286L8.98304 58.2215L8.95199 58.1904L8.27936 58.863C8.27821 58.8642 8.27707 58.8653 8.27593 58.8665V58.9286Z" fill="white" stroke="#EE7446" stroke-width="2"/>
</svg>
