<svg width="49" height="38" viewBox="0 0 49 38" fill="none" xmlns="http://www.w3.org/2000/svg">
<path d="M0.646484 29.9643C0.646484 31.4343 1.89278 32.6172 3.39533 32.6172H45.8976C47.3885 32.6172 48.6465 31.4343 48.6465 29.9643V27.564H0.646484V29.9643Z" fill="black" fill-opacity="0.8"/>
<path d="M25.4793 13.0015C25.4793 12.4847 25.0483 12.0598 24.5241 12.0598C24 12.0598 23.569 12.4847 23.569 13.0015C23.569 13.5183 24 13.9432 24.5241 13.9432C25.0599 13.9432 25.4793 13.5183 25.4793 13.0015Z" fill="black" fill-opacity="0.8"/>
<path d="M24.5358 5.75464C24.0117 5.75464 23.5807 6.17957 23.5807 6.69638C23.5807 7.21318 24.0117 7.63811 24.5358 7.63811C25.06 7.63811 25.491 7.21318 25.491 6.69638C25.4793 6.17957 25.06 5.75464 24.5358 5.75464Z" fill="black" fill-opacity="0.8"/>
<path d="M24.5358 18.5717C24.0117 18.5717 23.5807 18.9966 23.5807 19.5134C23.5807 20.0302 24.0117 20.4552 24.5358 20.4552C25.06 20.4552 25.491 20.0302 25.491 19.5134C25.4793 18.9966 25.06 18.5717 24.5358 18.5717Z" fill="black" fill-opacity="0.8"/>
<path d="M18.1413 12.0598C17.6171 12.0598 17.1862 12.4847 17.1862 13.0015C17.1862 13.5183 17.6171 13.9432 18.1413 13.9432C18.6654 13.9432 19.0964 13.5183 19.0964 13.0015C19.0964 12.4732 18.6654 12.0598 18.1413 12.0598Z" fill="black" fill-opacity="0.8"/>
<path d="M18.1413 7.63811C18.6654 7.63811 19.0964 7.21318 19.0964 6.69638C19.0964 6.17957 18.6654 5.75464 18.1413 5.75464C17.6171 5.75464 17.1862 6.17957 17.1862 6.69638C17.1862 7.21318 17.6171 7.63811 18.1413 7.63811Z" fill="black" fill-opacity="0.8"/>
<path d="M18.1413 18.5717C17.6171 18.5717 17.1862 18.9966 17.1862 19.5134C17.1862 20.0302 17.6171 20.4552 18.1413 20.4552C18.6654 20.4552 19.0964 20.0302 19.0964 19.5134C19.0964 18.9966 18.6654 18.5717 18.1413 18.5717Z" fill="black" fill-opacity="0.8"/>
<path d="M45.886 0.000976562H3.39533C1.89278 0.000976562 0.66978 1.19537 0.646484 2.6654V26.1859H48.6348V2.6654C48.6115 1.19537 47.3885 0.000976562 45.886 0.000976562ZM28.7872 6.6965C28.7872 5.42171 29.8355 4.37661 31.1401 4.37661C32.4446 4.37661 33.4929 5.41022 33.4929 6.6965C33.4929 7.98277 32.4446 9.01639 31.1401 9.01639C29.8355 9.01639 28.7872 7.98277 28.7872 6.6965ZM18.1413 21.8332C16.8367 21.8332 15.7884 20.7996 15.7884 19.5133C15.7884 18.227 16.8367 17.1934 18.1413 17.1934C19.4458 17.1934 20.4941 18.227 20.4941 19.5133C20.4941 20.7996 19.4342 21.8332 18.1413 21.8332ZM26.877 19.5133C26.877 20.7996 25.8287 21.8332 24.5358 21.8447C23.2313 21.8447 22.183 20.8111 22.1714 19.5363C22.1714 19.3296 22.1947 19.1228 22.2529 18.9276L18.5606 15.2755C17.2793 15.5052 16.0563 14.6783 15.8117 13.415C15.7884 13.2772 15.7768 13.1394 15.7768 12.9901C15.7768 11.9909 16.4873 11.141 17.3026 10.8195V8.86709C16.4873 8.54552 15.7768 7.69566 15.7768 6.6965C15.7768 5.42171 16.8251 4.37661 18.1296 4.37661C19.4342 4.37661 20.4824 5.41022 20.4824 6.6965C20.4941 7.76457 19.7603 8.68334 18.712 8.936V10.7506C19.97 11.0606 20.7387 12.324 20.4242 13.5643C20.331 13.9548 20.133 14.2993 19.8535 14.5864L23.0449 17.7217C23.3128 17.5035 23.6273 17.3427 23.9651 17.2623V15.2296C22.7071 14.908 21.9501 13.6447 22.2762 12.4043C22.6023 11.164 23.8836 10.4175 25.1415 10.7391C26.3995 11.0606 27.1566 12.324 26.8304 13.5643C26.6324 14.2993 26.085 14.8965 25.3628 15.1607V17.3427C26.2597 17.6758 26.877 18.5486 26.877 19.5133ZM31.9787 15.1721V17.3427C32.794 17.6643 33.5045 18.5142 33.5045 19.5133C33.5045 20.7881 32.4562 21.8332 31.1517 21.8332C29.8588 21.8332 28.7989 20.7996 28.7989 19.5133C28.7872 18.4452 29.521 17.5265 30.5693 17.2738V15.241C29.3114 14.931 28.5426 13.6677 28.8688 12.4273C28.9037 12.278 28.9619 12.1287 29.0318 11.9794L25.7122 8.69482C24.5824 9.34944 23.1381 8.98194 22.4742 7.87941C21.8103 6.76541 22.183 5.34132 23.3012 4.68669C24.431 4.03207 25.8753 4.39958 26.5392 5.5021C26.9352 6.16821 26.9818 6.98361 26.6441 7.67269L29.9753 10.9803C30.3247 10.785 30.7207 10.6817 31.1284 10.6817C32.4329 10.6817 33.4812 11.7153 33.4929 13.0015C33.5045 13.9892 32.794 14.8506 31.9787 15.1721Z" fill="black" fill-opacity="0.8"/>
<path d="M31.1401 7.63811C31.6642 7.63811 32.0952 7.21318 32.0952 6.69638C32.0952 6.17957 31.6642 5.75464 31.1401 5.75464C30.6159 5.75464 30.185 6.17957 30.185 6.69638C30.185 7.21318 30.6159 7.63811 31.1401 7.63811Z" fill="black" fill-opacity="0.8"/>
<path d="M31.1401 12.0598C30.6159 12.0598 30.185 12.4847 30.185 13.0015C30.185 13.5183 30.6159 13.9432 31.1401 13.9432C31.6642 13.9432 32.0952 13.5183 32.0952 13.0015C32.0952 12.4732 31.6642 12.0598 31.1401 12.0598Z" fill="black" fill-opacity="0.8"/>
<path d="M31.1401 18.5717C30.6159 18.5717 30.185 18.9966 30.185 19.5134C30.185 20.0302 30.6159 20.4552 31.1401 20.4552C31.6642 20.4552 32.0952 20.0302 32.0952 19.5134C32.0952 18.9966 31.6642 18.5717 31.1401 18.5717Z" fill="black" fill-opacity="0.8"/>
<path d="M35.7292 36.6228H31.8622V33.884H17.4191V36.6228H14.1694C13.785 36.6228 13.4705 36.9329 13.4705 37.3119C13.4705 37.6909 13.785 38.001 14.1694 38.001H35.7175C36.1019 38.001 36.4164 37.6909 36.4164 37.3119C36.4164 36.9329 36.1136 36.6228 35.7292 36.6228Z" fill="black" fill-opacity="0.8"/>
</svg>
