<svg width="62" height="56" viewBox="0 0 62 56" fill="none" xmlns="http://www.w3.org/2000/svg">
<path fill-rule="evenodd" clip-rule="evenodd" d="M60.0437 39.0721L40.4271 5.53779C38.4577 2.12369 34.7871 0.00465445 30.8174 7.65988e-06C26.8474 -0.00463963 23.1754 2.10565 21.1816 5.53793L1.55771 39.0846C-0.477144 42.506 -0.523178 46.7934 1.44781 50.2899C3.42043 53.7894 7.11403 55.9671 11.1316 55.9998L50.4409 56C54.5003 55.9605 58.1868 53.7894 60.1592 50.2931C62.1291 46.8009 62.0851 42.5231 60.0437 39.0721ZM6.38171 41.9298L26.0201 8.35843C27.0146 6.64646 28.8387 5.59816 30.811 5.60047C32.7832 5.60278 34.6066 6.6554 35.5846 8.35091L55.2167 41.9118C56.2457 43.6514 56.2678 45.793 55.2815 47.5414C54.2937 49.2924 52.4472 50.3798 50.4137 50.3997L11.1546 50.3994C9.16471 50.3832 7.31459 49.2923 6.3267 47.5398C5.3399 45.7892 5.36294 43.6429 6.38171 41.9298ZM30.8059 44.7982C32.3529 44.7982 33.607 43.5445 33.607 41.998C33.607 40.4515 32.3529 39.1978 30.8059 39.1978C29.2588 39.1978 28.0047 40.4515 28.0047 41.998C28.0047 43.5445 29.2588 44.7982 30.8059 44.7982ZM33.6152 16.7959H28.0129V36.3975H33.6152V16.7959Z" fill="#DD4A2C"/>
</svg>
