<svg width="15" height="15" viewBox="0 0 15 15" fill="none" xmlns="http://www.w3.org/2000/svg">
<path opacity="0.6" fill-rule="evenodd" clip-rule="evenodd" d="M0 7.5C0 11.6421 3.35786 15 7.5 15C11.6421 15 15 11.6421 15 7.5C15 3.35786 11.6421 0 7.5 0C3.35786 0 0 3.35786 0 7.5ZM13.6362 7.49981C13.6362 10.8888 10.8888 13.6362 7.49981 13.6362C4.11079 13.6362 1.36345 10.8888 1.36345 7.49981C1.36345 4.11079 4.11079 1.36345 7.49981 1.36345C10.8888 1.36345 13.6362 4.11079 13.6362 7.49981ZM8.18451 8.86289H8.86588V10.2265H6.13861V8.86289H6.82043V7.49926H6.13861V6.13562H8.18451V8.86289ZM8.18202 4.77123C8.18202 5.14779 7.87666 5.45305 7.49997 5.45305C7.12329 5.45305 6.81793 5.14779 6.81793 4.77123C6.81793 4.39468 7.12329 4.08942 7.49997 4.08942C7.87666 4.08942 8.18202 4.39468 8.18202 4.77123Z" fill="black"/>
</svg>
