<svg width="24" height="15" viewBox="0 0 24 15" fill="none" xmlns="http://www.w3.org/2000/svg">
<path fill-rule="evenodd" clip-rule="evenodd" d="M7.18713 0C5.00553 0 3.58252 1.68769 3.58252 3.84491C3.58252 7.1394 5.16932 8.65106 7.18713 8.65106C9.18596 8.65106 10.7917 7.18962 10.7917 4.03716C10.7917 1.84708 9.36268 0 7.18713 0ZM7.18698 6.72827C6.12201 6.72827 5.38468 6.02586 5.38468 3.84459C5.38468 2.70633 6.04589 1.92213 7.18698 1.92213C8.28247 1.92213 8.98929 2.8357 8.98929 4.03683C8.98929 6.05387 8.24828 6.72827 7.18698 6.72827Z" fill="black" fill-opacity="0.6"/>
<path fill-rule="evenodd" clip-rule="evenodd" d="M1.48639 14.4184C0 14.4184 0 14.4184 0 13.0493C0.269702 10.6167 3.00187 9.6123 7.18722 9.6123C11.3726 9.6123 14.1047 10.6167 14.3744 13.0493C14.3964 14.4184 14.3964 14.4184 12.8881 14.4184H12.5941V13.4572C12.5941 12.3058 10.6619 11.5348 7.18722 11.5348C3.71256 11.5348 1.78031 12.3058 1.78031 13.4572V14.4184H1.48639Z" fill="black" fill-opacity="0.6"/>
<path fill-rule="evenodd" clip-rule="evenodd" d="M18.4061 3.20459C16.7093 3.20459 15.6025 4.51724 15.6025 6.19509C15.6025 8.75748 16.8367 9.93322 18.4061 9.93322C19.9608 9.93322 21.2097 8.79654 21.2097 6.34462C21.2097 4.64121 20.0982 3.20459 18.4061 3.20459ZM18.4061 8.43831C17.5778 8.43831 17.0043 7.89198 17.0043 6.19543C17.0043 5.31011 17.5186 4.70018 18.4061 4.70018C19.2582 4.70018 19.8079 5.41073 19.8079 6.34495C19.8079 7.91377 19.2316 8.43831 18.4061 8.43831Z" fill="black" fill-opacity="0.6"/>
<path fill-rule="evenodd" clip-rule="evenodd" d="M13.9725 14.4188C12.8164 14.4188 12.8164 14.4188 12.8164 13.3539C13.0262 11.4618 15.1512 10.6807 18.4065 10.6807C21.6618 10.6807 23.7868 11.4618 23.9966 13.3539C24.0137 14.4188 24.0137 14.4188 22.8405 14.4188H22.6119V13.6712C22.6119 12.7756 21.109 12.1759 18.4065 12.1759C15.704 12.1759 14.2011 12.7756 14.2011 13.6712V14.4188H13.9725Z" fill="black" fill-opacity="0.6"/>
</svg>
