<svg width="36" height="28" viewBox="0 0 36 28" fill="none" xmlns="http://www.w3.org/2000/svg">
<path fill-rule="evenodd" clip-rule="evenodd" d="M26.1818 21.2727V24.5455H27.8182C32.3369 24.5455 36 20.8823 36 16.3636C36 12.2481 32.9614 8.8423 29.0053 8.26731C27.6136 3.44556 23.1686 0 18 0C14.1602 0 10.6511 1.90648 8.54164 4.99136C3.70969 5.61839 0 9.75071 0 14.7273C0 20.1497 4.39575 24.5455 9.81818 24.5455V21.2727C6.20323 21.2727 3.27273 18.3422 3.27273 14.7273C3.27273 11.2098 6.05347 8.32443 9.5558 8.18696L10.4574 8.15157L10.9087 7.37016C12.3616 4.85416 15.0421 3.27273 18 3.27273C22.0109 3.27273 25.4133 6.17934 26.0688 10.0901L26.3025 11.4843L27.7159 11.4556C27.7669 11.4547 27.7669 11.4547 27.8182 11.4545C30.5294 11.4545 32.7273 13.6524 32.7273 16.3636C32.7273 19.0749 30.5294 21.2727 27.8182 21.2727H26.1818ZM19.6365 27.8182V17.0414L23.3885 20.7934L25.7027 18.4793L18.0001 10.7767L10.2976 18.4793L12.6118 20.7934L16.3638 17.0414V27.8182H19.6365Z" fill="black" fill-opacity="0.5"/>
</svg>
