<svg width="39" height="60" viewBox="0 0 39 60" fill="none" xmlns="http://www.w3.org/2000/svg">
<path d="M33.8458 40.7991V40.799C33.8362 39.9242 33.5496 39.541 33.2362 39.3262C32.8534 39.0639 32.232 38.919 31.3541 38.9261L31.3458 38.9261V38.9261L21.8186 38.9241L21.1746 38.9239L20.9083 38.3376C20.8046 38.1092 20.7018 37.8424 20.6044 37.5896C20.5888 37.5492 20.5734 37.5091 20.5581 37.4696C20.4415 37.1682 20.3218 36.8669 20.1826 36.5704C19.9007 35.9701 19.5716 35.464 19.1382 35.1198C18.2405 34.407 17.5006 34.2669 16.8866 34.3254C16.2249 34.3883 15.592 34.692 14.9399 35.0816L14.9395 35.0818C13.6073 35.8771 12.1797 37.0834 10.756 38.2864C10.6292 38.3936 10.5024 38.5007 10.3757 38.6075C9.61754 39.2467 8.86334 39.8732 8.15935 40.3863C7.46908 40.8894 6.75371 41.3391 6.07418 41.5681L6.07407 41.5681C4.64721 42.0488 3.10431 42.218 1.94829 42.2725C1.59718 42.2891 1.27681 42.2952 1 42.2958V53.5452C5.23245 53.7274 8.2027 55.0389 10.5207 56.0624C10.9771 56.2639 11.4082 56.4542 11.8187 56.6226C17.8686 59.1037 22.0675 59.0548 24.2591 58.9734C26.2952 58.8976 27.2763 58.0593 27.8042 57.25C28.3279 56.4471 28.4637 55.5919 28.5372 55.1285C28.5439 55.0861 28.5501 55.0471 28.5561 55.0116L28.649 54.4557L29.1727 54.2474C30.2063 53.8361 30.7592 53.2654 31.0059 52.6074L31.0062 52.6065C31.105 52.3437 31.1597 52.0439 31.1597 51.7145C31.1597 51.1478 31.0019 50.6144 30.849 50.2371L30.5154 49.4141L31.2932 48.9856C32.1829 48.4955 32.6273 47.9086 32.7874 47.2703L32.7882 47.2673C32.8322 47.094 32.8561 46.8946 32.8588 46.6678L33.8458 40.7991ZM33.8458 40.7991C33.8549 41.6205 33.5053 42.2586 33.1163 42.7179C32.9222 42.9471 32.7265 43.1211 32.5815 43.236C32.5095 43.293 32.4518 43.3342 32.4154 43.359C32.3973 43.3714 32.3846 43.3796 32.3783 43.3836C32.377 43.3844 32.376 43.3851 32.3752 43.3855C32.3746 43.386 32.3741 43.3863 32.3739 43.3864C32.3738 43.3864 32.3738 43.3865 32.3738 43.3864L30.7936 44.3342M33.8458 40.7991L30.7936 44.3342M30.7936 44.3342L32.4137 45.1188M30.7936 44.3342L32.4137 45.1188M32.4137 45.1188C32.4139 45.119 32.4142 45.1193 32.4145 45.1195C32.4369 45.1378 32.4909 45.1868 32.5535 45.2805C32.6722 45.4579 32.8677 45.8644 32.8588 46.6675L32.4137 45.1188Z" stroke="#EE7446" stroke-width="2"/>
<path d="M37.4203 18.9546C37.1553 20.1577 36.4151 21.3246 35.176 22.3429H34.5234V23.3429V26.302H33.256H32.3656L32.2627 27.1865L31.4089 34.5246L23.8482 34.5252C23.4826 33.7597 22.9146 32.8094 22.0137 32.0422L21.4351 27.1839L21.3301 26.3022H20.4421H19.1745V23.3431V22.8484L18.7813 22.5482C17.3856 21.4828 16.5609 20.2394 16.2777 18.9546H37.4203Z" stroke="#EE7446" stroke-width="2"/>
<path d="M21.2258 13.3296L21.2259 13.3294C21.3741 13.0114 21.6572 12.571 22.2059 12.4343C22.4238 12.38 22.6272 12.3927 22.7915 12.4263C22.9843 12.1796 23.1995 11.9836 23.4409 11.8313C23.7815 11.6164 24.1182 11.5274 24.3356 11.4713C24.348 11.4681 24.3601 11.465 24.3718 11.4619C24.5889 11.406 24.6866 11.3808 24.7897 11.3305C24.8726 11.2901 24.9813 11.2203 25.1203 11.048C25.1204 11.0478 25.1205 11.0477 25.1206 11.0476L25.8992 11.6751C25.9958 11.5551 26.0932 11.4359 26.1912 11.3178L21.2258 13.3296ZM21.2258 13.3296C21.2183 13.3457 21.2108 13.3619 21.2033 13.378M21.2258 13.3296L21.2033 13.378M30.9073 12.4264C30.7144 12.1796 30.4991 11.9834 30.2576 11.831C29.9169 11.616 29.5801 11.5269 29.3626 11.4708C29.3499 11.4675 29.3375 11.4643 29.3256 11.4612C29.1088 11.4054 29.0114 11.3803 28.9085 11.3302C28.8257 11.2899 28.7172 11.2203 28.5785 11.0481L30.9073 12.4264ZM30.9073 12.4264C31.0715 12.3929 31.2746 12.3801 31.4923 12.4343C32.0411 12.5708 32.3244 13.0112 32.4726 13.3292L32.4728 13.3295C32.4803 13.3458 32.4879 13.362 32.4955 13.3783C32.5834 11.9259 32.4092 10.3758 31.9714 8.84015C31.5131 7.23265 30.784 5.69476 29.8013 4.26924L29.8013 4.2692C29.1233 3.28545 28.3229 2.38948 27.3465 1.52757L27.346 1.52718C27.2242 1.41953 27.0383 1.25609 26.8505 1.09106C26.6613 1.25621 26.474 1.42007 26.3524 1.52738L30.9073 12.4264ZM21.2033 13.378C21.1153 11.9258 21.2897 10.3758 21.7274 8.84026L21.2033 13.378ZM24.8974 5.26931C24.3909 6.00397 23.7222 6.57744 23.1876 7.03587C23.0768 7.13081 22.9719 7.22081 22.8753 7.30629C22.2645 7.84698 21.8889 8.27409 21.7274 8.84011L24.8974 5.26931ZM24.8974 5.26931C25.1648 4.88152 25.3284 4.44806 25.4456 4.06162M24.8974 5.26931L25.4456 4.06162M25.4456 4.06162C25.5312 3.7792 25.6062 3.47013 25.6732 3.19389M25.4456 4.06162L25.6732 3.19389M25.6732 3.19389C25.6957 3.10098 25.7173 3.01177 25.7381 2.92855M25.6732 3.19389L25.7381 2.92855M25.7381 2.92855C25.9287 2.16746 26.0979 1.75215 26.3523 1.52751L25.7381 2.92855ZM22.5325 12.8108C22.5318 12.8121 22.5314 12.8127 22.5314 12.8127C22.5313 12.8127 22.5317 12.812 22.5325 12.8108Z" stroke="#EE7446" stroke-width="2"/>
</svg>
