<svg width="16" height="14" viewBox="0 0 16 14" fill="none" xmlns="http://www.w3.org/2000/svg">
<path d="M0.585366 11.1973H15.4146C15.7463 11.1973 16 10.9322 16 10.5854C16 10.2386 15.7463 9.9734 15.4146 9.9734H15.239C15.0244 6.87273 12.7415 4.32284 9.73659 3.58848C9.99024 3.24169 10.1463 2.79291 10.1463 2.32373C10.1463 1.14058 9.22927 0.181824 8.09756 0.181824C6.96585 0.181824 6.04878 1.14058 6.04878 2.32373C6.04878 2.77251 6.18537 3.20089 6.41951 3.54768C3.33659 4.22085 0.97561 6.81153 0.760975 9.9734H0.585366C0.253659 9.9734 0 10.2386 0 10.5854C0 10.9322 0.253659 11.1973 0.585366 11.1973ZM8.09756 1.40577C8.58537 1.40577 8.97561 1.81375 8.97561 2.32373C8.97561 2.83371 8.58537 3.24169 8.09756 3.24169C7.60976 3.24169 7.21951 2.83371 7.21951 2.32373C7.21951 1.81375 7.60976 1.40577 8.09756 1.40577Z" fill="black" fill-opacity="0.5"/>
<path d="M15.4146 12.6253H0.585366C0.253659 12.6253 0 12.8905 0 13.2373C0 13.5841 0.253659 13.8493 0.585366 13.8493H15.4146C15.7463 13.8493 16 13.5841 16 13.2373C16 12.8905 15.7463 12.6253 15.4146 12.6253Z" fill="black" fill-opacity="0.5"/>
</svg>
