<svg width="57" height="60" viewBox="0 0 57 60" fill="none" xmlns="http://www.w3.org/2000/svg">
<path d="M41.3031 10.2996C41.9341 9.97533 42.4887 9.71954 42.9316 9.5278C43.5672 14.2021 43.0693 17.8614 41.9803 20.7258C40.7982 23.8351 38.8965 26.0689 36.8753 27.6731C34.848 29.2821 32.7011 30.2565 31.0534 30.8282C30.3511 31.0718 29.7438 31.2408 29.2814 31.3541C28.0486 23.3067 31.5289 17.8431 35.4407 14.3103C37.4875 12.4619 39.6486 11.15 41.3031 10.2996Z" fill="white" stroke="#EE7446" stroke-width="2"/>
<path d="M13.2332 46.7704L13.2335 46.7707C13.3009 46.8459 14.8917 48.5839 17.5381 50.3335C20.1797 52.0799 23.9449 53.8851 28.3405 53.9837C33.7576 54.1104 38.9451 51.6159 43.6965 46.7944C43.6969 46.7942 43.6972 46.7941 43.6974 46.794C43.6988 46.7935 43.7011 46.7929 43.7041 46.7929C43.7072 46.793 43.7095 46.7936 43.7108 46.7941C43.7116 46.7945 43.7131 46.7951 43.7159 46.7978C43.7187 46.8006 43.7194 46.8021 43.7197 46.8029C43.7203 46.8042 43.7209 46.8065 43.721 46.8094C43.7211 46.8124 43.7206 46.8147 43.7201 46.816C43.7201 46.8162 43.72 46.8165 43.7198 46.8168C38.9484 51.6572 33.9108 54.0169 28.7249 54.0169H28.724H28.7232H28.7224H28.7215H28.7207H28.7199H28.719H28.7182H28.7174H28.7165H28.7157H28.7149H28.714H28.7132H28.7124H28.7115H28.7107H28.7099H28.709H28.7082H28.7073H28.7065H28.7057H28.7048H28.704H28.7032H28.7023H28.7015H28.7007H28.6998H28.699H28.6982H28.6973H28.6965H28.6957H28.6948H28.694H28.6932H28.6923H28.6915H28.6907H28.6898H28.689H28.6882H28.6873H28.6865H28.6857H28.6848H28.684H28.6832H28.6823H28.6815H28.6807H28.6798H28.679H28.6782H28.6773H28.6765H28.6756H28.6748H28.674H28.6731H28.6723H28.6715H28.6706H28.6698H28.669H28.6681H28.6673H28.6665H28.6656H28.6648H28.664H28.6631H28.6623H28.6615H28.6606H28.6598H28.659H28.6581H28.6573H28.6565H28.6556H28.6548H28.654H28.6531H28.6523H28.6515H28.6506H28.6498H28.649H28.6481H28.6473H28.6465H28.6456H28.6448H28.644H28.6431H28.6423H28.6415H28.6406H28.6398H28.639H28.6381H28.6373H28.6365H28.6356H28.6348H28.634H28.6331H28.6323H28.6315H28.6306H28.6298H28.629H28.6281H28.6273H28.6265H28.6257H28.6248H28.624H28.6232H28.6223H28.6215H28.6207H28.6198H28.619H28.6182H28.6173H28.6165H28.6157H28.6148H28.614H28.6132H28.6123H28.6115H28.6107H28.6098H28.609H28.6082H28.6073H28.6065H28.6057H28.6048H28.604H28.6032H28.6023H28.6015H28.6007H28.5998H28.599H28.5982H28.5973H28.5965H28.5957H28.5948H28.594H28.5932H28.5924H28.5915H28.5907H28.5899H28.589H28.5882H28.5874H28.5865H28.5857H28.5849H28.584H28.5832H28.5824H28.5815H28.5807H28.5799H28.579H28.5782H28.5774H28.5765H28.5757H28.5749H28.574H28.5732H28.5724H28.5715H28.5707H28.5699H28.5691H28.5682H28.5674H28.5666H28.5657H28.5649H28.5641H28.5632H28.5624H28.5616H28.5607H28.5599H28.5591H28.5582H28.5574H28.5566H28.5557H28.5549H28.5541H28.5532H28.5524H28.5516H28.5508H28.5499H28.5491H28.5483H28.5474H28.5466H28.5458H28.5449H28.5441H28.5433H28.5424H28.5416H28.5408H28.5399H28.5391H28.5383H28.5374H28.5366H28.5358H28.535H28.5341H28.5333H28.5325H28.5316H28.5308H28.53H28.5291H28.5283H28.5275H28.5266H28.5258H28.525H28.5241H28.5233H28.5225H28.5216H28.5208H28.52H28.5192H28.5183H28.5175H28.5167H28.5158H28.515H28.5142H28.5133H28.5125H28.5117H28.5108H28.51H28.5092H28.5083H28.5075H28.5067H28.5058H28.505H28.5042H28.5034H28.5025H28.5017H28.5009H28.5H28.4992H28.4984H28.4975H28.4967H28.4959H28.495H28.4942H28.4934H28.4925H28.4917H28.4909H28.4901H28.4892H28.4884H28.4876H28.4867H28.4859H28.4851H28.4842H28.4834H28.4826H28.4817H28.4809H28.4801H28.4792H28.4784H28.4776H28.4768H28.4759H28.4751H28.4743H28.4734H28.4726H28.4718H28.4709H28.4701H28.4693H28.4684H28.4676H28.4668H28.4659H28.4651H28.4643H28.4635H28.4626H28.4618H28.461H28.4601H28.4593H28.4585H28.4576H28.4568H28.456H28.4551H28.4543H28.4535H28.4527H28.4518H28.451H28.4502H28.4493H28.4485H28.4477H28.4468H28.446H28.4452H28.4443H28.4435H28.4427H28.4418H28.441H28.4402H28.4394H28.4385H28.4377H28.4369H28.436H28.4352H28.4344H28.4335H28.4327H28.4319H28.431H28.4302H28.4294H28.4285H28.4277H28.4269H28.4261H28.4252H28.4244H28.4236H28.4227H28.4219H28.4211H28.4202H28.4194H28.4186H28.4177H28.4169H28.4161H28.4152H28.4144H28.4136H28.4128H28.4119H28.4111H28.4103H28.4094H28.4086H28.4078H28.4069H28.4061H28.4053H28.4044H28.4036H28.4028H28.4019H28.4011H28.4003H28.3995H28.3986H28.3978H28.397H28.3961H28.3953H28.3945H28.3936H28.3928H28.392H28.3911H28.3903H28.3895H28.3886H28.3878H28.387H28.3862H28.3853H28.3845H28.3837H28.3828H28.382H28.3812H28.3803H28.3795H28.3787H28.3778H28.377H28.3762H28.3753H28.3745H28.3737H28.3729H28.372H28.3712H28.3704H28.3695H28.3687H28.3679H28.367H28.3662H28.3654H28.3645H28.3637H28.3629H28.362H28.3612H28.3604H28.3596H28.3587H28.3579H28.3571H28.3562H28.3554H28.3546H28.3537H28.3529H28.3521H28.3512H28.3504H28.3496H28.3487H28.3479H28.3471H28.3462H28.3454H28.3446H28.3438H28.3429H28.3421H28.3413H28.3404H28.3396H28.3388H28.3379H28.3371H28.3363H28.3354H28.3346H28.3338H28.3329H28.3321H28.3313H28.3304H28.3296H28.3288H28.3279H28.3271H28.3263H28.3255H28.3246H28.3238H28.323H28.3221H28.3213H28.3205H28.3196H28.3188H28.318H28.3171H28.3163H28.3155H28.3146H28.3138H28.313H28.3121H28.3113H28.3107C23.9831 53.9127 20.2771 52.1963 17.5934 50.4346C14.9107 48.6735 13.3076 46.905 13.2064 46.7924L12.4626 47.4608L13.2072 46.7932C13.2046 46.7903 13.2041 46.7889 13.2038 46.7883L13.2038 46.7882C13.2034 46.7869 13.2029 46.7844 13.203 46.7812C13.2032 46.7779 13.204 46.7755 13.2046 46.7741L13.2046 46.7741C13.205 46.7734 13.2057 46.7719 13.2087 46.7692C13.2119 46.7663 13.2136 46.7658 13.2143 46.7655L13.2143 46.7655C13.2158 46.765 13.2182 46.7645 13.2214 46.7647C13.2246 46.7649 13.2269 46.7656 13.2282 46.7662L13.2283 46.7662C13.2289 46.7665 13.2304 46.7673 13.2332 46.7704Z" fill="#CFDFE8" stroke="#EE7446" stroke-width="2"/>
<path d="M23.4127 46.7811L23.4021 46.7694C23.3994 46.7664 23.398 46.7658 23.3974 46.7655L23.3974 46.7655C23.3961 46.7649 23.3936 46.7641 23.3903 46.7639C23.387 46.7637 23.3845 46.7643 23.3831 46.7648L23.383 46.7648C23.3823 46.765 23.3809 46.7655 23.378 46.7681L23.4127 46.7811ZM23.4127 46.7811L23.4236 46.7924M23.4127 46.7811L23.4236 46.7924M23.4236 46.7924C24.7456 48.1644 26.5211 49.0083 28.4193 49.1677L28.4749 49.1723M23.4236 46.7924L28.4749 49.1723M28.4749 49.1723L28.5306 49.1708M28.4749 49.1723L28.5306 49.1708M28.5306 49.1708C30.4955 49.1165 32.3449 48.2326 33.6202 46.7374C33.624 46.7348 33.6289 46.7337 33.6339 46.7349C33.6398 46.7363 33.6445 46.7411 33.646 46.7467L33.6463 46.7476M28.5306 49.1708L33.6463 46.7476M33.6463 46.7476C33.6477 46.7532 33.6463 46.7595 33.6413 46.7642L33.6067 46.7967M33.6463 46.7476L33.6067 46.7967M33.6067 46.7967L33.5753 46.8324M33.6067 46.7967L33.5753 46.8324M33.5753 46.8324C32.3045 48.2769 30.4955 49.1346 28.5729 49.2041M33.5753 46.8324L28.5729 49.2041M28.5729 49.2041H28.5728H28.5725H28.5722H28.572H28.5717H28.5714H28.5711H28.5708H28.5705H28.5702H28.5699H28.5696H28.5693H28.5691H28.5688H28.5685H28.5682H28.5679H28.5676H28.5673H28.567H28.5667H28.5664H28.5662H28.5659H28.5656H28.5653H28.565H28.5647H28.5644H28.5641H28.5638H28.5635H28.5632H28.5629H28.5627H28.5624H28.5621H28.5618H28.5615H28.5612H28.5609H28.5606H28.5603H28.56H28.5597H28.5594H28.5592H28.5589H28.5586H28.5583H28.558H28.5577H28.5574H28.5571H28.5568H28.5565H28.5562H28.5559H28.5557H28.5554H28.5551H28.5548H28.5545H28.5542H28.5539H28.5536H28.5533H28.553H28.5527H28.5524H28.5521H28.5519H28.5516H28.5513H28.551H28.5507H28.5504H28.5501H28.5498H28.5495H28.5492H28.5489H28.5486H28.5483H28.548H28.5478H28.5475H28.5472H28.5469H28.5466H28.5463H28.546H28.5457H28.5454H28.5451H28.5448H28.5445H28.5442H28.5439H28.5437H28.5434H28.5431H28.5428H28.5425H28.5422H28.5419H28.5416H28.5413H28.541H28.5407H28.5404H28.5401H28.5398H28.5396H28.5393H28.539H28.5387H28.5384H28.5381H28.5378H28.5375H28.5372H28.5369H28.5366H28.5363H28.536H28.5357H28.5355H28.5352H28.5349H28.5346H28.5343H28.534H28.5337H28.5334H28.5331H28.5328H28.5325H28.5322H28.5319H28.5317H28.5314H28.5311H28.5308H28.5305H28.5302H28.5299H28.5296H28.5293H28.529H28.5287H28.5284H28.5281H28.5278H28.5276H28.5273H28.527H28.5267H28.5264H28.5261H28.5258H28.5255H28.5252H28.5249H28.5246H28.5243H28.524H28.5238H28.5235H28.5232H28.5229H28.5226H28.5223H28.522H28.5217H28.5214H28.5211H28.5208H28.5205H28.5203H28.52H28.5197H28.5194H28.5191H28.5188H28.5185H28.5182H28.5179H28.5176H28.5173H28.5171H28.5168H28.5165H28.5162H28.5159H28.5156H28.5153H28.515H28.5147H28.5144H28.5141H28.5139H28.5136H28.5133H28.513H28.5127H28.5124H28.5121H28.5118H28.5115H28.5112H28.5109H28.5107H28.5104H28.5101H28.5098H28.5095H28.5092H28.5089H28.5086H28.5083H28.508H28.5078H28.5075H28.5072H28.5069H28.5066H28.5063H28.506H28.5057H28.5054H28.5052H28.5049H28.5046H28.5043H28.504H28.5037H28.5034H28.5031H28.5028H28.5026H28.5023H28.502H28.5017H28.5014H28.5011H28.5008H28.5005H28.5003H28.5H28.4997H28.4994H28.4991H28.4988H28.4985H28.4982H28.498H28.4977H28.4974H28.4971H28.4968H28.4965H28.4962H28.4959H28.4957H28.4954H28.4951H28.4948H28.4945H28.4942H28.4939H28.4937H28.4934H28.4931H28.4928H28.4925H28.4922H28.4919H28.4917H28.4914H28.4911H28.4908H28.4905H28.4902H28.4899H28.4897H28.4894H28.4891H28.4888H28.4885H28.4882H28.488H28.4877H28.4874H28.4871H28.4868H28.4865H28.4863H28.486H28.4857H28.4854H28.4851H28.4848H28.4846H28.4843H28.484H28.4837H28.4834H28.4831H28.4829H28.4826H28.4823H28.482H28.4817H28.4815H28.4812H28.4809H28.4806H28.4803H28.48H28.48C26.5373 49.0614 24.7174 48.2007 23.3742 46.7892C23.3735 46.7881 23.3733 46.7874 23.3732 46.7871L23.3731 46.787C23.3727 46.7858 23.3722 46.7834 23.3723 46.7802C23.3725 46.7769 23.3733 46.7745 23.3739 46.7731L23.3739 46.7731C23.3742 46.7724 23.3749 46.7709 23.378 46.7681L28.5729 49.2041Z" fill="#CFDFE8" stroke="#EE7446" stroke-width="2"/>
<path d="M49.5277 50.5574L48.8301 49.8409C42.4198 56.0831 36.2328 58.5456 30.6731 58.9414C31.3899 58.8801 32.095 58.7863 32.7876 58.6632C39.7172 57.4314 45.2317 53.2943 48.8013 49.8179L48.8027 49.8165C48.8059 49.8134 48.8076 49.8126 48.8085 49.8123C48.8101 49.8117 48.8128 49.811 48.8162 49.811C48.8196 49.8111 48.822 49.8118 48.8233 49.8123C48.8239 49.8126 48.8253 49.8131 48.8281 49.816L48.8286 49.8165C48.8317 49.8197 48.8324 49.8214 48.8328 49.8223C48.8334 49.8239 48.8341 49.8266 48.834 49.83C48.834 49.8333 48.8333 49.8358 48.8327 49.8371L48.8327 49.8371C48.8325 49.8378 48.8319 49.8392 48.829 49.8419L49.5277 50.5574ZM49.5277 50.5574C49.9299 50.1646 49.9369 49.5196 49.5436 49.1174C49.1508 48.7152 48.5058 48.7082 48.1036 49.1015M49.5277 50.5574C42.3122 57.5837 35.2884 59.9999 29.0259 59.9999C19.5317 59.9999 11.8097 54.436 7.91423 50.9581L7.64857 50.7222L48.1036 49.1015M48.1036 49.1015C41.0991 55.9232 26.7437 65.039 9.26834 49.4411L48.1036 49.1015ZM8.58022 50.2121L8.58022 50.2121L8.57816 50.2103L8.3125 49.9744L8.22579 49.8975L8.12376 49.8424C8.11811 49.8393 8.11473 49.834 8.11463 49.8272C8.11499 49.8205 8.11903 49.8147 8.12445 49.812L8.12447 49.812L8.13342 49.8075C8.13411 49.8071 8.1348 49.8068 8.13547 49.8064C8.16388 49.8228 8.20736 49.8515 8.27018 49.9006C8.36302 49.9733 8.4629 50.0623 8.60142 50.1862L8.60245 50.1872C9.75489 51.2158 10.8961 52.1408 12.0249 52.9691C10.6778 52.0055 9.51971 51.0509 8.58022 50.2121Z" fill="#CFDFE8" stroke="#EE7446" stroke-width="2"/>
<path d="M21.5082 14.3103C25.42 17.8431 28.9003 23.3067 27.6676 31.3541C27.2051 31.2408 26.5979 31.0718 25.8956 30.8282C24.2478 30.2565 22.1009 29.2821 20.0736 27.6731C18.0524 26.0689 16.1507 23.8351 14.9686 20.7258C13.8796 17.8614 13.3817 14.2021 14.0174 9.5278C14.4602 9.71954 15.0148 9.97533 15.6458 10.2996C17.3003 11.15 19.4614 12.4619 21.5082 14.3103Z" fill="white" stroke="#EE7446" stroke-width="2"/>
<path d="M28.5407 1.37536C28.9696 1.76534 29.5646 2.33989 30.2262 3.07592C31.5652 4.56552 33.1519 6.68844 34.2034 9.25634C35.2511 11.8147 35.7614 14.7966 34.9878 18.0502C34.2532 21.1396 32.3392 24.566 28.4537 28.1628C28.0566 27.8048 27.505 27.2741 26.8912 26.587C25.6488 25.1964 24.1733 23.1895 23.1943 20.6993C22.2193 18.2189 21.7368 15.2615 22.4643 11.9307C23.1524 8.77983 24.9389 5.22382 28.5407 1.37536Z" fill="white" stroke="#EE7446" stroke-width="2"/>
<path d="M51.3568 20.4282C51.7959 20.4725 52.1842 20.5257 52.5107 20.578C50.9834 24.0835 49.1553 26.3856 47.2894 27.8795C45.2373 29.5224 43.0879 30.2293 41.1245 30.4469C39.1511 30.6656 37.358 30.3901 36.0507 30.0542C35.5785 29.9329 35.1732 29.8047 34.8499 29.6912C37.4042 23.559 41.9087 21.3307 45.8715 20.6152C47.9697 20.2363 49.923 20.2836 51.3568 20.4282Z" fill="white" stroke="#EE7446" stroke-width="2"/>
<path d="M4.43842 20.578C4.76487 20.5257 5.15321 20.4725 5.59234 20.4282C7.02611 20.2836 8.97943 20.2363 11.0776 20.6152C15.0404 21.3307 19.5449 23.559 22.0991 29.6912C21.7759 29.8047 21.3706 29.9329 20.8984 30.0542C19.5911 30.3901 17.798 30.6656 15.8246 30.4469C13.8612 30.2293 11.7118 29.5224 9.6597 27.8795C7.79375 26.3856 5.96574 24.0835 4.43842 20.578Z" fill="white" stroke="#EE7446" stroke-width="2"/>
<path d="M53.9493 34.9074C54.5069 35.3399 54.972 35.7323 55.3339 36.0518C51.4399 38.4726 47.9616 39.4837 44.9341 39.652C41.6342 39.8355 38.8055 39.0214 36.4885 37.8453C34.1655 36.6662 32.3612 35.1249 31.135 33.8717C30.6197 33.3451 30.2096 32.8724 29.9089 32.504C36.5691 28.2111 42.9548 29.1425 47.8147 31.243C50.3592 32.3427 52.4711 33.7604 53.9493 34.9074Z" fill="white" stroke="#EE7446" stroke-width="2"/>
<path d="M9.13453 31.243C13.9944 29.1425 20.3801 28.2111 27.0403 32.504C26.7396 32.8724 26.3295 33.3451 25.8141 33.8717C24.588 35.1249 22.7837 36.6662 20.4606 37.8453C18.1436 39.0214 15.315 39.8355 12.0151 39.652C8.98762 39.4837 5.50933 38.4726 1.61528 36.0518C1.97714 35.7323 2.4423 35.3399 2.99984 34.9074C4.47812 33.7604 6.59 32.3427 9.13453 31.243Z" fill="white" stroke="#EE7446" stroke-width="2"/>
</svg>
