<svg width="16" height="16" viewBox="0 0 16 16" fill="none" xmlns="http://www.w3.org/2000/svg">
<path d="M8.54158 5.10645H6.97852V7.65964H8.51605C8.94652 7.65964 9.27435 7.58083 9.49971 7.36534C9.72558 7.15053 9.83843 6.86117 9.83843 6.469C9.83843 6.03853 9.722 5.72551 9.49035 5.46815C9.25852 5.21096 8.94226 5.10645 8.54158 5.10645Z" fill="black" fill-opacity="0.5"/>
<path d="M13.7867 0H2.25787C1.0337 0 0 1.02945 0 2.25396V13.7828C0 15.0073 1.0337 16 2.25787 16H13.7867C15.0112 16 16 15.0073 16 13.783V2.25396C16 1.02945 15.0112 0 13.7867 0ZM11.1263 8.58979C10.4829 9.12766 9.6 9.3617 8.4783 9.3617H6.97872V12.5957H4.76596V3.40426H8.51626C9.22043 3.40426 9.84425 3.50434 10.3857 3.76391C10.928 4.02315 11.3474 4.37753 11.6449 4.85617C11.9416 5.33498 12.0906 5.85294 12.0906 6.46043C12.0907 7.35881 11.7694 8.05243 11.1263 8.58979Z" fill="black" fill-opacity="0.5"/>
</svg>
