<svg width="16" height="17" viewBox="0 0 16 17" fill="none" xmlns="http://www.w3.org/2000/svg">
<path d="M8.54182 5.42938H6.97876V8.09863H8.51629C8.94676 8.09863 9.27459 8.01624 9.49995 7.79095C9.72582 7.56638 9.83867 7.26387 9.83867 6.85387C9.83867 6.40384 9.72225 6.07659 9.49059 5.80753C9.25876 5.53864 8.9425 5.42938 8.54182 5.42938Z" fill="#DD4A2C" fill-opacity="0.83"/>
<path d="M13.7867 0.0908813H2.25787C1.0337 0.0908813 0 1.16712 0 2.44729V14.5002C0 15.7803 1.0337 16.8182 2.25787 16.8182H13.7867C15.0112 16.8182 16 15.7803 16 14.5004V2.44729C16 1.16712 15.0112 0.0908813 13.7867 0.0908813ZM11.1263 9.07111C10.4829 9.63343 9.6 9.87811 8.4783 9.87811H6.97872V13.2592H4.76596V3.64988H8.51626C9.22043 3.64988 9.84425 3.75451 10.3857 4.02588C10.928 4.2969 11.3474 4.66739 11.6449 5.16779C11.9416 5.66836 12.0906 6.20986 12.0906 6.84496C12.0907 7.78418 11.7694 8.50933 11.1263 9.07111Z" fill="#DD4A2C" fill-opacity="0.83"/>
</svg>
