<?xml version="1.0" encoding="utf-8"?>
<!-- Generator: Adobe Illustrator 23.1.0, SVG Export Plug-In . SVG Version: 6.00 Build 0)  -->
<svg version="1.1" id="Capa_1" xmlns="http://www.w3.org/2000/svg" xmlns:xlink="http://www.w3.org/1999/xlink" x="0px" y="0px"
	 viewBox="0 0 114 114" style="enable-background:new 0 0 114 114;" xml:space="preserve">
<style type="text/css">
	.st0{fill:#787878;}
</style>
<path class="st0" d="M96.9,92L76.6,70.9c5.2-6.2,8.1-14,8.1-22.1c0-19-15.4-34.4-34.4-34.4S15.8,29.8,15.8,48.8s15.4,34.4,34.4,34.4
	c7.1,0,13.9-2.1,19.7-6.2l20.4,21.3c0.9,0.9,2,1.4,3.2,1.4c1.2,0,2.3-0.4,3.1-1.3C98.6,96.7,98.6,93.8,96.9,92z M50.3,23.4
	c14,0,25.4,11.4,25.4,25.4S64.3,74.2,50.3,74.2S24.8,62.8,24.8,48.8S36.2,23.4,50.3,23.4z"/>
</svg>
