<svg width="44" height="49" viewBox="0 0 44 49" fill="none" xmlns="http://www.w3.org/2000/svg">
<path d="M22.0376 48.3457C23.9685 48.3457 43.7795 39.5811 43.8947 9.66644C43.895 9.57673 43.8736 9.48831 43.8322 9.40893C43.7909 9.32955 43.7309 9.26163 43.6576 9.21113C34.5503 3.02845 23.0254 0.345703 22.0376 0.345703C21.0497 0.345703 9.52487 3.02845 0.417571 9.21113C0.344228 9.26164 0.284257 9.32956 0.242913 9.40894C0.201569 9.48832 0.180112 9.57673 0.180423 9.66644C0.295647 39.5811 20.1067 48.3457 22.0376 48.3457ZM11.0285 23.9514L13.257 21.6988C13.3573 21.5974 13.4933 21.5405 13.6352 21.5405C13.777 21.5405 13.9131 21.5974 14.0134 21.6988L19.7421 27.4897L30.0617 17.0585C30.1114 17.0083 30.1704 16.9684 30.2352 16.9413C30.3001 16.9141 30.3697 16.9001 30.4399 16.9001C30.5102 16.9001 30.5797 16.9141 30.6446 16.9413C30.7095 16.9685 30.7685 17.0083 30.8181 17.0585L33.0462 19.3111C33.1465 19.4125 33.2029 19.55 33.2028 19.6934C33.2028 19.8367 33.1465 19.9742 33.0462 20.0756L20.1203 33.1413C20.02 33.2427 19.8839 33.2996 19.7421 33.2996C19.6002 33.2996 19.4642 33.2427 19.3639 33.1413L11.0285 24.716C10.9788 24.6658 10.9394 24.6062 10.9125 24.5406C10.8857 24.475 10.8718 24.4047 10.8718 24.3337C10.8718 24.2627 10.8857 24.1924 10.9125 24.1268C10.9394 24.0612 10.9788 24.0016 11.0285 23.9514Z" fill="black" fill-opacity="0.8"/>
</svg>
