<svg width="14" height="17" viewBox="0 0 14 17" fill="none" xmlns="http://www.w3.org/2000/svg">
<path d="M13.0594 0.805762C12.9044 0.467575 12.5475 0.284536 12.1974 0.340319C11.994 0.373441 11.7905 0.434454 11.5888 0.483264C10.735 0.687222 9.88131 0.89118 9.02592 1.09514C8.81915 1.14395 8.61072 1.1945 8.4023 1.24331C7.55357 1.44553 6.6765 1.5048 5.80943 1.42286C5.00406 1.34616 4.21036 1.1178 3.42333 0.929531C2.65297 0.744748 1.88261 0.559966 1.11059 0.376927C1.00888 0.352522 0.905497 0.32463 0.800448 0.328117C0.446951 0.33509 0.130138 0.589601 0.033427 0.943477C-0.0149287 1.11954 0.00341307 1.32001 0.00341307 1.50131V7.62876C0.00341307 7.82749 7.81917e-05 8.02622 0.0117503 8.2232C0.0601059 9.02683 0.305219 9.81477 0.730416 10.4877C0.943848 10.8276 1.2023 11.1274 1.4841 11.4046C1.97432 11.8892 2.46288 12.3738 2.95311 12.8585C3.61508 13.5139 4.27706 14.1694 4.9407 14.8248C5.1658 15.0479 5.39257 15.2711 5.61767 15.4942C5.77775 15.6529 5.92949 15.8202 6.13625 15.9143C6.4714 16.066 6.87492 16.0381 7.1784 15.8202C7.25176 15.7679 7.31679 15.7069 7.38182 15.6424C7.55023 15.4768 7.71865 15.3094 7.88706 15.1438C8.51735 14.5198 9.14931 13.8957 9.7796 13.2716C10.3482 12.7085 10.9168 12.1455 11.4871 11.5824C11.5754 11.4952 11.6655 11.4063 11.7538 11.3192C11.7555 11.3174 11.7588 11.3157 11.7605 11.3122C12.3191 10.7561 12.736 10.0501 12.9577 9.27786C13.0895 8.81765 13.1445 8.34 13.1445 7.86061V1.22414C13.1412 1.07945 13.1195 0.938247 13.0594 0.805762ZM9.55616 7.76822C9.55616 7.86236 9.47946 7.94254 9.38942 7.94254H7.52189V9.89496C7.52189 9.9891 7.44519 10.0693 7.35514 10.0693H5.78775C5.69771 10.0693 5.62101 9.9891 5.62101 9.89496V7.94254H3.75348C3.66344 7.94254 3.58674 7.86236 3.58674 7.76822V6.12959C3.58674 6.03545 3.66344 5.95526 3.75348 5.95526H5.62101V4.00285C5.62101 3.90871 5.69771 3.82852 5.78775 3.82852H7.35514C7.44519 3.82852 7.52189 3.90871 7.52189 4.00285V5.95526H9.38942C9.44111 5.95526 9.48113 5.97618 9.5078 6.00756C9.53782 6.03545 9.55616 6.07729 9.55616 6.12959V7.76822Z" fill="black" fill-opacity="0.5"/>
</svg>
