<svg width="40" height="49" viewBox="0 0 40 49" fill="none" xmlns="http://www.w3.org/2000/svg">
<path d="M28.4379 10.6405C31.1379 10.6405 33.3268 8.4603 33.3268 5.77092C33.3268 3.08154 31.1379 0.901367 28.4379 0.901367C25.7378 0.901367 23.549 3.08154 23.549 5.77092C23.549 8.4603 25.7378 10.6405 28.4379 10.6405Z" fill="black" fill-opacity="0.8"/>
<path d="M39.6126 47.1858V33.2252C39.6126 32.2778 38.8446 31.5099 37.8973 31.5099C36.9499 31.5099 36.182 32.2778 36.182 33.2252V47.1858C36.182 48.1332 36.9499 48.9011 37.8973 48.9011C38.8446 48.9011 39.6126 48.1332 39.6126 47.1858Z" fill="black" fill-opacity="0.8"/>
<path d="M31.8243 20.9098C31.3451 20.9098 30.8862 20.7164 30.5516 20.3733L18.9263 8.45401C18.2336 7.74373 17.0935 7.73796 16.3936 8.44119L1.01919 23.8886C0.687613 24.2217 0.501465 24.6726 0.501465 25.1427V47.1236C0.501465 48.1054 1.2974 48.9013 2.27924 48.9013H11.2951C12.277 48.9013 13.0729 48.1054 13.0729 47.1236V30.0426C13.0729 29.5717 13.2597 29.1201 13.5924 28.7868L18.8091 23.5598C19.4996 22.8679 20.6191 22.8633 21.3153 23.5494L25.9288 28.0959C26.2614 28.4237 26.7096 28.6075 27.1766 28.6075H37.8348C38.8166 28.6075 39.6126 27.8115 39.6126 26.8297V22.6876C39.6126 21.7057 38.8166 20.9098 37.8348 20.9098H31.8243Z" fill="black" fill-opacity="0.8"/>
</svg>
