<svg width="48" height="47" viewBox="0 0 48 47" fill="none" xmlns="http://www.w3.org/2000/svg">
<path fill-rule="evenodd" clip-rule="evenodd" d="M17.7497 0.763672C13.1206 0.763672 9.34157 4.74199 9.34157 9.65225C9.34157 17.3134 21.4171 25.6108 22.8036 26.5202C23.1614 26.7703 23.5863 26.884 24.0112 26.884C24.4137 26.884 24.8387 26.7703 25.1964 26.5202C26.583 25.6108 38.6584 17.3134 38.6584 9.65225C38.6584 4.74199 34.8791 0.763672 30.2502 0.763672C27.768 0.763672 25.5318 1.90045 24.0112 3.6963C22.4682 1.90045 20.2319 0.763672 17.7497 0.763672ZM1.68243 17.1823C0.678891 17.1823 -0.243488 17.8425 0.0580694 18.8789L1.89534 25.1903L3.06806 29.2189C4.24077 33.2473 4.24077 33.2474 6.18075 35.2195L8.12074 37.1917L10.0607 39.1638C12.0007 41.136 12.0007 41.1359 12.0007 44.0609V46.9859H13.2132H15.872H19.0199H22.5912V40.9018C22.5912 37.4201 22.6274 35.4933 21.9317 33.6757C21.2359 31.858 19.955 30.7394 18.0182 28.9696L14.0375 25.332C13.7284 25.0414 13.3282 24.8712 12.9077 24.8513C12.5375 24.8339 12.1713 24.9339 11.8596 25.1375C11.5479 25.3411 11.3062 25.6383 11.168 25.9877C11.0298 26.3372 11.002 26.7217 11.0883 27.088C11.1747 27.4543 11.371 27.7842 11.65 28.032L15.2315 31.3046C15.2889 31.337 15.3422 31.3765 15.39 31.4223C15.5413 31.5684 15.6294 31.7696 15.6349 31.9817C15.6403 32.1938 15.5626 32.3994 15.4189 32.5533C15.3478 32.6295 15.2626 32.6908 15.1682 32.7335C15.0738 32.7762 14.9721 32.7997 14.8687 32.8025C14.7654 32.8052 14.6626 32.7873 14.5661 32.7496C14.4696 32.712 14.3814 32.6554 14.3064 32.5831L14.1281 32.4143L11.3206 29.7552C8.51308 27.0962 8.51308 27.0962 7.01341 24.437L5.51375 21.778L3.49005 18.19C3.09364 17.4872 2.36905 17.1811 1.68243 17.1824V17.1823ZM46.3176 17.1823C45.631 17.1823 44.9064 17.4872 44.51 18.1899L42.4863 21.7779L40.9866 24.4369C39.4869 27.0961 39.4869 27.096 36.6794 29.7551L33.8719 32.4142L33.6937 32.583C33.6187 32.6553 33.5304 32.7119 33.434 32.7495C33.3375 32.7871 33.2346 32.8051 33.1313 32.8023C33.028 32.7995 32.9263 32.7761 32.8318 32.7333C32.7374 32.6906 32.6523 32.6294 32.5811 32.5532C32.4375 32.3992 32.3598 32.1936 32.3653 31.9815C32.3708 31.7694 32.4589 31.5682 32.6103 31.4222C32.6581 31.3764 32.7113 31.3368 32.7687 31.3045L36.35 28.0318C36.629 27.784 36.8253 27.4541 36.9116 27.0878C36.998 26.7216 36.9701 26.3371 36.832 25.9876C36.6938 25.6382 36.4521 25.341 36.1404 25.1374C35.8287 24.9338 35.4625 24.8338 35.0924 24.8512C34.6718 24.871 34.2716 25.0413 33.9625 25.3319L29.9818 28.9695C28.0451 30.7392 26.7641 31.8578 26.0683 33.6755C25.3726 35.4932 25.4088 37.4199 25.4088 40.9016V46.9858H28.9801H32.1281H34.7868H35.9993V44.0608C35.9993 41.1359 35.9993 41.1358 37.9393 39.1637L39.8793 37.1915L41.8193 35.2194C43.7592 33.2472 43.7593 33.2472 44.932 29.2188L46.1047 25.1902L47.9419 18.8788C48.2435 17.8425 47.3211 17.1839 46.3176 17.1822V17.1823Z" fill="black"/>
</svg>
