<svg width="68" height="60" viewBox="0 0 68 60" fill="none" xmlns="http://www.w3.org/2000/svg">
<path d="M34.0458 28.7021C33.3518 28.7021 32.7828 29.2712 32.7828 29.9652V37.9318L25.8848 41.9152C25.288 42.2622 25.0798 43.0255 25.4268 43.6362C25.6627 44.0387 26.0791 44.2608 26.5233 44.2608C26.7314 44.2608 26.9535 44.2053 27.1478 44.0942L34.0458 40.1109L40.9438 44.0942C41.1381 44.2053 41.3602 44.2608 41.5684 44.2608C41.9986 44.2608 42.4289 44.0387 42.6648 43.6362C43.0118 43.0394 42.8036 42.2622 42.2068 41.9152L35.3088 37.9318V29.9652C35.2949 29.2712 34.7398 28.7021 34.0458 28.7021Z" fill="#EE7446"/>
<path d="M28.6607 16.7245C27.3838 17.3907 24.5664 18.9591 21.9154 21.1242C21.0688 21.8182 20.583 22.8591 20.583 23.9556V27.356C20.583 28.05 21.1521 28.619 21.846 28.619C22.54 28.619 23.109 28.05 23.109 27.356V23.9556C23.109 23.6086 23.2617 23.2894 23.5254 23.0673C26.5094 20.6246 29.7433 18.9868 30.354 18.6815C30.8675 18.4316 31.1868 17.9181 31.1868 17.3491V12.5607C31.1868 12.1443 30.9786 11.7418 30.6316 11.5198C30.354 11.3393 30.1874 11.034 30.1874 10.7009V5.73213C30.1874 3.95559 31.6309 2.51214 33.4074 2.51214H34.4761C36.2527 2.51214 37.6961 3.95559 37.6961 5.73213V10.7009C37.6961 11.034 37.5296 11.3393 37.252 11.5198C36.905 11.7557 36.6968 12.1443 36.6968 12.5607V17.3629C36.6968 17.932 37.016 18.4455 37.5296 18.6953C38.1541 19.0007 41.3741 20.6246 44.3582 23.0812C44.6219 23.3033 44.7745 23.6225 44.7745 23.9695V27.3699C44.7745 28.0638 45.3436 28.6329 46.0376 28.6329C46.7315 28.6329 47.3006 28.0638 47.3006 27.3699V23.9695C47.3006 22.873 46.8148 21.8321 45.9682 21.1381C43.3311 18.9729 40.4997 17.3907 39.2228 16.7384V13.1575C39.8613 12.5052 40.2221 11.6308 40.2221 10.7148V5.73213C40.2221 2.56766 37.6545 0 34.49 0H33.4213C30.2568 0 27.6892 2.56766 27.6892 5.73213V10.7009C27.6892 11.6308 28.05 12.5052 28.6885 13.1436V16.7245H28.6607Z" fill="#EE7446"/>
<path d="M12.7967 33.8791H13.8654C15.6419 33.8791 17.0854 35.3226 17.0854 37.0991V42.0679C17.0854 42.401 16.9188 42.7063 16.6412 42.8868C16.2942 43.1227 16.0861 43.5113 16.0861 43.9277V48.7299C16.0861 49.299 16.4053 49.8125 16.9188 50.0623C17.5434 50.3677 20.7634 51.9915 23.7474 54.4482C24.0111 54.6702 24.1638 54.9895 24.1638 55.3364V58.7369C24.1638 59.4308 24.7328 59.9999 25.4268 59.9999C26.1208 59.9999 26.6898 59.4308 26.6898 58.7369V55.3364C26.6898 54.24 26.204 53.199 25.3574 52.5051C22.7203 50.3399 19.889 48.7577 18.6121 48.1054V44.5245C19.2505 43.8722 19.6114 42.9978 19.6114 42.0818V37.113C19.6114 33.9485 17.0437 31.3809 13.8793 31.3809H12.8105C9.64608 31.3809 7.07842 33.9485 7.07842 37.113V42.0679C7.07842 42.9978 7.43928 43.8722 8.07772 44.5106V48.0915C6.80083 48.7577 3.98335 50.326 1.33241 52.4912C0.485774 53.1852 0 54.2261 0 55.3226V58.723C0 59.4169 0.569049 59.986 1.26301 59.986C1.95697 59.986 2.52602 59.4169 2.52602 58.723V55.3226C2.52602 54.9756 2.6787 54.6564 2.9424 54.4343C5.92644 51.9915 9.16031 50.3538 9.77099 50.0485C10.2845 49.7986 10.6037 49.2851 10.6037 48.716V43.9277C10.6037 43.5113 10.3956 43.1088 10.0486 42.8868C9.77099 42.7063 9.60444 42.401 9.60444 42.0679V37.0991C9.57668 35.3226 11.0201 33.8791 12.7967 33.8791Z" fill="#EE7446"/>
<path d="M42.526 52.4912C41.6794 53.1852 41.1936 54.2261 41.1936 55.3226V58.723C41.1936 59.4169 41.7627 59.986 42.4566 59.986C43.1506 59.986 43.7196 59.4169 43.7196 58.723V55.3226C43.7196 54.9756 43.8723 54.6564 44.136 54.4343C47.12 51.9915 50.3539 50.3538 50.9646 50.0485C51.4781 49.7986 51.7974 49.2851 51.7974 48.716V43.9277C51.7974 43.5113 51.5892 43.1088 51.2422 42.8868C50.9646 42.7063 50.798 42.401 50.798 42.0679V37.0991C50.798 35.3226 52.2415 33.8791 54.018 33.8791H55.0867C56.8633 33.8791 58.3067 35.3226 58.3067 37.0991V42.0679C58.3067 42.401 58.1402 42.7063 57.8626 42.8868C57.5156 43.1227 57.3074 43.5113 57.3074 43.9277V48.7299C57.3074 49.299 57.6266 49.8125 58.1402 50.0623C58.7647 50.3677 61.9847 51.9915 64.9688 54.4482C65.2325 54.6702 65.3851 54.9895 65.3851 55.3364V58.7369C65.3851 59.4308 65.9542 59.9999 66.6482 59.9999C67.3421 59.9999 67.9112 59.4308 67.9112 58.7369V55.3364C67.9112 54.24 67.4254 53.199 66.5788 52.5051C63.9417 50.3399 61.1103 48.7577 59.8334 48.1054V44.5245C60.4719 43.8722 60.8327 42.9978 60.8327 42.0818V37.113C60.8327 33.9485 58.2651 31.3809 55.1006 31.3809H54.0319C50.8674 31.3809 48.2998 33.9485 48.2998 37.113V42.0679C48.2998 42.9978 48.6606 43.8722 49.2991 44.5106V48.0915C47.9944 48.7577 45.1769 50.326 42.526 52.4912Z" fill="#EE7446"/>
</svg>
