<?xml version="1.0" encoding="utf-8"?>
<!-- Generator: Adobe Illustrator 23.1.0, SVG Export Plug-In . SVG Version: 6.00 Build 0)  -->
<svg version="1.1" id="Layer_1" xmlns="http://www.w3.org/2000/svg" xmlns:xlink="http://www.w3.org/1999/xlink" x="0px" y="0px"
	 viewBox="0 0 49.8 49.8" style="enable-background:new 0 0 49.8 49.8;" xml:space="preserve">
<style type="text/css">
	.st0{fill:#FFFFFF;}
	.st1{fill:#F61C0D;}
</style>
<path class="st0" d="M33.7,36.9H16c-2,0-3.6-1.6-3.6-3.6V17.9c0-2,1.6-3.6,3.6-3.6h17.6c2,0,3.6,1.6,3.6,3.6v15.3
	C37.3,35.2,35.7,36.9,33.7,36.9z"/>
<path class="st1" d="M38.5,7.7H11.3c-5.3,0-9.7,4.5-9.7,10.1V32c0,5.6,4.3,10.1,9.7,10.1h27.2c5.3,0,9.7-4.5,9.7-10.1V17.8
	C48.2,12.2,43.9,7.7,38.5,7.7z M32,25.6l-12.7,6.3c-0.3,0.2-0.7-0.1-0.7-0.5v-13c0-0.4,0.4-0.7,0.7-0.5L32,24.6
	C32.4,24.8,32.4,25.4,32,25.6z"/>
</svg>
