<svg width="32" height="32" viewBox="0 0 32 32" fill="none" xmlns="http://www.w3.org/2000/svg">
<path d="M16.0627 30.742H16.0566C13.5566 30.7411 11.1002 30.1169 8.91844 28.9326L1 30.9998L3.11911 23.2966C1.81194 21.0421 1.12411 18.4848 1.12523 15.8647C1.12851 7.66838 7.82935 1 16.0626 1C20.0585 1.00172 23.8089 2.54985 26.629 5.35977C29.4492 8.16955 31.0015 11.9044 30.9999 15.8765C30.9966 24.0709 24.2984 30.7386 16.0627 30.742Z" fill="#25D366" stroke="#25D366"/>
<path fill-rule="evenodd" clip-rule="evenodd" d="M16.0627 30.742H16.0566C13.5566 30.7411 11.1002 30.1169 8.91844 28.9326L1 30.9998L3.11911 23.2966C1.81194 21.0421 1.12411 18.4848 1.12523 15.8647C1.12851 7.66838 7.82935 1 16.0626 1C20.0585 1.00172 23.8089 2.54985 26.629 5.35977C29.4492 8.16955 31.0015 11.9044 30.9999 15.8765C30.9966 24.0709 24.2984 30.7386 16.0627 30.742ZM9.2852 26.2414L9.73855 26.5091C11.6447 27.6349 13.8298 28.2306 16.0576 28.2314H16.0626C22.9055 28.2314 28.4749 22.6885 28.4777 15.8756C28.479 12.5741 27.1888 9.46983 24.8448 7.13433C22.5008 4.79883 19.3836 3.512 16.0675 3.51086C9.21932 3.51086 3.64982 9.05319 3.6471 15.8656C3.64614 18.2003 4.30252 20.474 5.5453 22.4411L5.84049 22.9086L4.58628 27.4681L9.2852 26.2414ZM23.0769 19.0772C23.3372 19.2025 23.513 19.287 23.5881 19.4117C23.6813 19.5666 23.6813 20.3103 23.3705 21.1781C23.0593 22.0457 21.5683 22.8376 20.8511 22.9442C20.2081 23.0398 19.3944 23.0798 18.5004 22.797C17.9583 22.6258 17.2631 22.3973 16.3726 22.0145C12.8737 20.5109 10.5091 17.1359 10.0622 16.4981C10.0309 16.4534 10.009 16.4221 9.99678 16.4059L9.99376 16.4019C9.79625 16.1396 8.47278 14.3823 8.47278 12.5635C8.47278 10.8525 9.31728 9.95569 9.706 9.54289C9.73263 9.51461 9.75712 9.4886 9.77906 9.46476C10.1212 9.09288 10.5255 8.99992 10.7743 8.99992C11.0231 8.99992 11.2722 9.0022 11.4897 9.01307C11.5165 9.01441 11.5444 9.01425 11.5733 9.01408C11.7908 9.01282 12.0619 9.01123 12.3294 9.65069C12.4323 9.89678 12.5829 10.2616 12.7417 10.6464C13.0629 11.4245 13.4177 12.2843 13.4802 12.4087C13.5735 12.5946 13.6357 12.8115 13.5113 13.0595C13.4926 13.0967 13.4753 13.1317 13.4588 13.1653C13.3654 13.3551 13.2966 13.4948 13.1381 13.6791C13.0757 13.7515 13.0112 13.8296 12.9468 13.9078C12.8184 14.0634 12.69 14.219 12.5782 14.3298C12.3913 14.5151 12.1968 14.716 12.4146 15.0879C12.6323 15.4598 13.3813 16.6761 14.4909 17.661C15.6836 18.7198 16.7202 19.1673 17.2456 19.3941C17.3482 19.4384 17.4314 19.4743 17.4923 19.5046C17.8654 19.6906 18.0831 19.6595 18.3009 19.4117C18.5186 19.1638 19.2339 18.327 19.4827 17.9552C19.7314 17.5835 19.9803 17.6454 20.3224 17.7693C20.6646 17.8934 22.4995 18.7919 22.8728 18.9778C22.9456 19.0141 23.0138 19.0469 23.0769 19.0772Z" fill="white"/>
</svg>
